<?xml version="1.0" encoding="utf-8"?>
<svg viewBox="0.22899919748306274 0.22899919748306274 80 80" width="50" height="50" xmlns="http://www.w3.org/2000/svg">
  <path d="M 80.229 40.229 C 80.229 62.32 62.32 80.229 40.229 80.229 C 18.138 80.229 0.229 62.32 0.229 40.229 C 0.229 18.138 18.138 0.229 40.229 0.229 C 62.32 0.229 80.229 18.138 80.229 40.229 Z" fill="#FF0000" transform="matrix(1, 0, 0, 1, 0, 0)"/>
  <path d="M 13.446 31.729 C 13.446 27.661 15.931 24.141 19.545 22.449 L 35.134 29.631 C 35.282 30.308 35.359 31.01 35.359 31.729 C 35.359 33.7 34.776 35.543 33.764 37.111 C 31.84 35.953 28.367 35.179 24.403 35.179 C 20.439 35.179 16.966 35.953 15.042 37.111 C 14.03 35.543 13.446 33.7 13.446 31.729 Z" fill="white" transform="matrix(1, 0, 0, 1, 0, 0)"/>
  <path d="M 45.099 31.729 C 45.099 31.01 45.176 30.308 45.324 29.631 L 60.913 22.449 C 64.527 24.141 67.012 27.661 67.012 31.729 C 67.012 33.7 66.428 35.543 65.416 37.111 C 63.492 35.953 60.019 35.179 56.055 35.179 C 52.091 35.179 48.618 35.953 46.695 37.111 C 45.682 35.543 45.099 33.7 45.099 31.729 Z" fill="white" transform="matrix(1, 0, 0, 1, 0, 0)"/>
  <path d="M 60.611 35.542 C 61.564 34.528 62.142 33.192 62.142 31.729 C 62.142 28.553 59.417 25.979 56.055 25.979 C 52.693 25.979 49.968 28.553 49.968 31.729 C 49.968 33.192 50.547 34.528 51.499 35.542 C 52.887 35.309 54.43 35.179 56.055 35.179 C 57.681 35.179 59.224 35.309 60.611 35.542 Z" fill="black" transform="matrix(1, 0, 0, 1, 0, 0)"/>
  <path d="M 28.959 35.542 C 29.911 34.528 30.49 33.192 30.49 31.729 C 30.49 28.553 27.765 25.979 24.403 25.979 C 21.041 25.979 18.316 28.553 18.316 31.729 C 18.316 33.192 18.894 34.528 19.847 35.542 C 21.234 35.309 22.777 35.179 24.403 35.179 C 26.029 35.179 27.571 35.309 28.959 35.542 Z" fill="black" transform="matrix(1, 0, 0, 1, 0, 0)"/>
  <path d="M 39.515 49.229 C 48.906 49.229 57.107 55.022 57.229 55.111 L 56.526 56.229 C 56.348 56.101 38.656 43.624 26.09 56.164 L 25.229 55.178 C 29.699 50.715 34.76 49.229 39.515 49.229 Z" fill="black" transform="matrix(1, 0, 0, 1, 0, 0)"/>
</svg>