<?xml version="1.0" encoding="utf-8"?>
<svg viewBox="45.000003814697266 45.000003814697266 80 80" width="50" height="50" xmlns="http://www.w3.org/2000/svg">
  <path d="M125 85C125 107.091 107.091 125 85 125C62.9086 125 45 107.091 45 85C45 62.9086 62.9086 45 85 45C107.091 45 125 62.9086 125 85Z" fill="#B764E2" transform="matrix(1, 0, 0, 1, 0, 0)"/>
  <path d="M94.0362 68.3765C91.4982 70.272 89.8696 73.2063 89.8696 76.5C89.8696 82.2161 94.775 86.85 100.826 86.85C106.877 86.85 111.783 82.2161 111.783 76.5C111.783 75.4874 111.629 74.5088 111.342 73.5838C109.163 73.931 106.119 73.7307 102.888 72.9129C98.7514 71.8659 95.4167 70.0876 94.0362 68.3765Z" fill="white" transform="matrix(1, 0, 0, 1, 0, 0)"/>
  <path d="M98.2423 71.2922C96.1724 72.2102 94.7391 74.197 94.7391 76.5C94.7391 79.6756 97.4644 82.25 100.826 82.25C104.188 82.25 106.913 79.6756 106.913 76.5C106.913 75.4126 106.593 74.3956 106.038 73.5284C105.026 73.3904 103.967 73.1861 102.888 72.9129C101.174 72.4792 99.5986 71.9201 98.2423 71.2922Z" fill="black" transform="matrix(1, 0, 0, 1, 0, 0)"/>
  <path d="M75.7283 68.2054C74.4378 69.9682 71.0194 71.8311 66.7453 72.9129C63.6844 73.6877 60.7916 73.9082 58.6428 73.6342C58.3658 74.5443 58.2174 75.5058 58.2174 76.5001C58.2174 82.2162 63.1228 86.8501 69.1739 86.8501C75.225 86.8501 80.1304 82.2162 80.1304 76.5001C80.1304 73.1056 78.4006 70.0928 75.7283 68.2054Z" fill="white" transform="matrix(1, 0, 0, 1, 0, 0)"/>
  <path d="M63.9997 73.47C63.4211 74.3498 63.087 75.3881 63.087 76.5C63.087 79.6756 65.8122 82.25 69.1739 82.25C72.5356 82.25 75.2609 79.6756 75.2609 76.5C75.2609 74.1262 73.7381 72.0883 71.5649 71.2106C70.17 71.8716 68.5324 72.4605 66.7453 72.9129C65.8089 73.1499 64.8881 73.335 63.9997 73.47Z" fill="black" transform="matrix(1, 0, 0, 1, 0, 0)"/>
  <path d="M86 104.846C77.1771 104.846 70 110.451 70 104.957C70 99.4628 77.1771 94.9885 86 94.9885C94.8229 94.9885 102 99.4585 102 104.957C102 110.456 94.8229 104.846 86 104.846Z" fill="black" transform="matrix(1, 0, 0, 1, 0, 0)"/>
  <path d="M86.3218 94.9905C86.3176 94.9898 86.3136 94.9892 86.3098 94.9885L86.1955 94.98C86.1111 94.9825 86.0272 94.9854 85.9436 94.9886C85.9624 94.9886 85.9812 94.9886 86 94.9886C86.1075 94.9886 86.2148 94.9892 86.3218 94.9905Z" fill="white" transform="matrix(1, 0, 0, 1, 0, 0)"/>
  <path d="M99.2225 99.3487C99.3779 99.4905 99.5276 99.635 99.6714 99.7819C99.5392 99.6344 99.3889 99.49 99.2225 99.3487Z" fill="white" transform="matrix(1, 0, 0, 1, 0, 0)"/>
  <path d="M97.6457 101.241C95.3749 98.8746 91.0061 97.2686 86 97.2686C80.9939 97.2686 76.6251 98.8746 74.3544 101.241H97.6457Z" fill="white" transform="matrix(1, 0, 0, 1, 0, 0)"/>
</svg>