<?xml version="1.0" encoding="utf-8"?>
<svg viewBox="45 45 80 80" width="50px" height="50px" xmlns="http://www.w3.org/2000/svg">
  <defs>
    <clipPath id="clip0">
      <rect width="32" height="18" fill="white" transform="translate(70 94)"/>
    </clipPath>
  </defs>
  <path d="M125 85C125 107.091 107.091 125 85 125C62.9086 125 45 107.091 45 85C45 62.9086 62.9086 45 85 45C107.091 45 125 62.9086 125 85Z" fill="#FCEE21"/>
  <path d="M110.431 81.4834C111.293 80.0051 111.783 78.3066 111.783 76.5C111.783 70.7839 106.877 66.15 100.826 66.15C94.775 66.15 89.8696 70.7839 89.8696 76.5C89.8696 78.3066 90.3596 80.0051 91.2209 81.4834C93.0847 79.8839 96.6874 78.8 100.826 78.8C104.965 78.8 108.567 79.8839 110.431 81.4834Z" fill="white"/>
  <path d="M106.065 79.4289C106.604 78.5711 106.913 77.5696 106.913 76.5C106.913 73.3244 104.188 70.75 100.826 70.75C97.4644 70.75 94.7391 73.3244 94.7391 76.5C94.7391 77.5696 95.0483 78.5711 95.5869 79.4289C97.1433 79.0279 98.9283 78.8 100.826 78.8C102.724 78.8 104.509 79.0279 106.065 79.4289Z" fill="black"/>
  <path d="M78.7791 81.4834C79.6404 80.0051 80.1304 78.3066 80.1304 76.5C80.1304 70.7839 75.225 66.15 69.1739 66.15C63.1228 66.15 58.2174 70.7839 58.2174 76.5C58.2174 78.3066 58.7074 80.0051 59.5687 81.4834C61.4325 79.8839 65.0352 78.8 69.1739 78.8C73.3126 78.8 76.9153 79.8839 78.7791 81.4834Z" fill="white"/>
  <path d="M74.4131 79.4289C74.9517 78.5711 75.2609 77.5696 75.2609 76.5C75.2609 73.3244 72.5356 70.75 69.1739 70.75C65.8122 70.75 63.0869 73.3244 63.0869 76.5C63.0869 77.5696 63.3961 78.5711 63.9347 79.4289C65.4911 79.0279 67.2761 78.8 69.1739 78.8C71.0717 78.8 72.8567 79.0279 74.4131 79.4289Z" fill="black"/>
  <g clip-path="url(#clip0)">
    <path d="M86.2969 112C77.9587 112 73.961 107.318 72.0815 103.394C70.0673 99.1869 70.0061 95.0472 70.0061 94.8747L70 94.1294L70.7224 94.2895C77.3036 95.7495 82.8931 96.2361 87.4173 96.2361C96.3432 96.2361 101.125 94.345 101.192 94.3203L101.976 94L102 94.8501C102.006 95.1704 102.153 102.778 97.2983 107.799C94.6046 110.583 90.9007 112 86.2969 112Z" fill="black"/>
    <path d="M71.9042 99.4949H100.27C100.639 97.9031 100.764 96.5292 100.806 95.7064C99.6247 96.0821 97.1942 96.7289 93.5516 97.117C88.8682 97.616 81.2401 97.7454 71.2244 95.6078C71.2911 96.4275 71.463 97.8468 71.9042 99.4949Z" fill="white"/>
    <path d="M94.4229 108.656C87.2192 103.384 80.3575 107.15 78.1124 108.684C80.3524 110.103 83.0863 110.817 86.2969 110.817C89.4975 110.817 92.2208 110.092 94.4229 108.656Z" fill="#D85B5B"/>
  </g>
</svg>