<?xml version="1.0" encoding="utf-8"?>
<svg viewBox="45.000003814697266 45.000003814697266 80 80" width="50" height="50" xmlns="http://www.w3.org/2000/svg">
  <path d="M125 85C125 107.091 107.091 125 85 125C62.9086 125 45 107.091 45 85C45 62.9086 62.9086 45 85 45C107.091 45 125 62.9086 125 85Z" fill="#FCEE21" transform="matrix(1, 0, 0, 1, 0, 0)"/>
  <path d="M80.1304 76.5C80.1304 82.2162 75.225 86.85 69.1739 86.85C63.1228 86.85 58.2174 82.2162 58.2174 76.5C58.2174 70.7839 63.1228 66.15 69.1739 66.15C75.225 66.15 80.1304 70.7839 80.1304 76.5Z" fill="white" transform="matrix(1, 0, 0, 1, 0, 0)"/>
  <path d="M75.2609 76.5C75.2609 79.6756 72.5356 82.25 69.1739 82.25C65.8122 82.25 63.0869 79.6756 63.0869 76.5C63.0869 73.3244 65.8122 70.75 69.1739 70.75C72.5356 70.75 75.2609 73.3244 75.2609 76.5Z" fill="black" transform="matrix(1, 0, 0, 1, 0, 0)"/>
  <path d="M111.783 76.5C111.783 82.2162 106.877 86.85 100.826 86.85C94.7749 86.85 89.8695 82.2162 89.8695 76.5C89.8695 70.7839 94.7749 66.15 100.826 66.15C106.877 66.15 111.783 70.7839 111.783 76.5Z" fill="white" transform="matrix(1, 0, 0, 1, 0, 0)"/>
  <path d="M106.913 76.5C106.913 79.6756 104.188 82.25 100.826 82.25C97.4643 82.25 94.7391 79.6756 94.7391 76.5C94.7391 73.3244 97.4643 70.75 100.826 70.75C104.188 70.75 106.913 73.3244 106.913 76.5Z" fill="black" transform="matrix(1, 0, 0, 1, 0, 0)"/>
  <g clip-path="url(#clip0)" transform="matrix(1, 0, 0, 1, 0, 0)">
    <path d="M86.2969 112C77.9587 112 73.961 107.318 72.0815 103.394C70.0673 99.1869 70.0061 95.0472 70.0061 94.8747L70 94.1294L70.7224 94.2895C77.3036 95.7495 82.8931 96.2361 87.4173 96.2361C96.3432 96.2361 101.125 94.345 101.192 94.3203L101.976 94L102 94.8501C102.006 95.1704 102.153 102.778 97.2983 107.799C94.6046 110.583 90.9007 112 86.2969 112Z" fill="black"/>
    <path d="M71.9042 99.4949H100.27C100.639 97.9031 100.764 96.5292 100.806 95.7064C99.6247 96.0821 97.1942 96.7289 93.5516 97.117C88.8682 97.616 81.2401 97.7454 71.2244 95.6078C71.2911 96.4275 71.463 97.8468 71.9042 99.4949Z" fill="white"/>
    <path d="M94.4229 108.656C87.2192 103.384 80.3575 107.15 78.1124 108.684C80.3524 110.103 83.0863 110.817 86.2969 110.817C89.4975 110.817 92.2208 110.092 94.4229 108.656Z" fill="#D85B5B"/>
  </g>
</svg>