<?xml version="1.0" encoding="utf-8"?>
<svg viewBox="45.000003814697266 45.000003814697266 80 80" width="50" height="50" xmlns="http://www.w3.org/2000/svg">
  <path d="M125 85C125 107.091 107.091 125 85 125C62.9086 125 45 107.091 45 85C45 62.9086 62.9086 45 85 45C107.091 45 125 62.9086 125 85Z" fill="#FBB03B" transform="matrix(1, 0, 0, 1, 0, 0)"/>
  <path d="M79.1304 76.5C79.1304 82.2162 74.225 86.85 68.1739 86.85C62.1228 86.85 57.2174 82.2162 57.2174 76.5C57.2174 70.7839 62.1228 66.15 68.1739 66.15C74.225 66.15 79.1304 70.7839 79.1304 76.5Z" fill="white" transform="matrix(1, 0, 0, 1, 0, 0)"/>
  <path d="M74.2608 76.5C74.2608 79.6756 71.5356 82.25 68.1739 82.25C64.8121 82.25 62.0869 79.6756 62.0869 76.5C62.0869 73.3244 64.8121 70.75 68.1739 70.75C71.5356 70.75 74.2608 73.3244 74.2608 76.5Z" fill="black" transform="matrix(1, 0, 0, 1, 0, 0)"/>
  <path d="M110.783 76.5C110.783 82.2162 105.877 86.85 99.8262 86.85C93.775 86.85 88.8696 82.2162 88.8696 76.5C88.8696 70.7839 93.775 66.15 99.8262 66.15C105.877 66.15 110.783 70.7839 110.783 76.5Z" fill="white" transform="matrix(1, 0, 0, 1, 0, 0)"/>
  <path d="M105.913 76.5C105.913 79.6756 103.188 82.25 99.8261 82.25C96.4644 82.25 93.7391 79.6756 93.7391 76.5C93.7391 73.3244 96.4644 70.75 99.8261 70.75C103.188 70.75 105.913 73.3244 105.913 76.5Z" fill="black" transform="matrix(1, 0, 0, 1, 0, 0)"/>
  <g clip-path="url(#clip0)" transform="matrix(1, 0, 0, 1, 0, 0)">
    <path d="M86.2278 100C83.7984 100 81.5388 99.7469 79.5927 99.4067C76.0214 98.8079 72.4803 97.7171 69 96.1437L69.32 94C69.4941 94.0831 86.735 102.421 100.613 94L101 96.1121C96.1151 99.0824 90.8601 100 86.2278 100Z" fill="black"/>
    <path d="M86.2278 100C83.7984 100 81.5388 99.7469 79.5927 99.4067C76.0214 98.8079 72.4803 97.7171 69 96.1437L69.32 94C69.4941 94.0831 86.735 102.421 100.613 94L101 96.1121C96.1151 99.0824 90.8601 100 86.2278 100Z" fill="black"/>
    <path d="M86.2278 100C83.7984 100 81.5388 99.7469 79.5927 99.4067C76.0214 98.8079 72.4803 97.7171 69 96.1437L69.32 94C69.4941 94.0831 86.735 102.421 100.613 94L101 96.1121C96.1151 99.0824 90.8601 100 86.2278 100Z" fill="black"/>
  </g>
</svg>