<?xml version="1.0" encoding="utf-8"?>
<svg viewBox="45.000003814697266 45.000003814697266 80 80" width="50" height="50" xmlns="http://www.w3.org/2000/svg">
  <path d="M125 85C125 107.091 107.091 125 85 125C62.9086 125 45 107.091 45 85C45 62.9086 62.9086 45 85 45C107.091 45 125 62.9086 125 85Z" fill="#00FFFF" transform="matrix(1, 0, 0, 1, 0, 0)"/>
  <path d="M108.905 82.296C106.935 81.2274 103.604 80.525 99.8261 80.525C96.0484 80.525 92.7172 81.2274 90.7474 82.296C89.562 80.6423 88.8696 78.6475 88.8696 76.5C88.8696 73.2063 90.4982 70.272 93.0362 68.3765C94.4167 70.0876 97.7514 71.8659 101.888 72.9129C105.119 73.7307 108.163 73.931 110.342 73.5838C110.629 74.5088 110.783 75.4874 110.783 76.5C110.783 78.6475 110.09 80.6423 108.905 82.296Z" fill="white" transform="matrix(1, 0, 0, 1, 0, 0)"/>
  <path d="M74.7283 68.2054C73.4378 69.9682 70.0195 71.8311 65.7453 72.9129C62.6844 73.6877 59.7916 73.9082 57.6428 73.6342C57.3658 74.5443 57.2174 75.5058 57.2174 76.5001C57.2174 78.6476 57.9098 80.6424 59.0952 82.2961C61.065 81.2274 64.3962 80.5251 68.1739 80.5251C71.9516 80.5251 75.2828 81.2274 77.2526 82.2961C78.4381 80.6424 79.1304 78.6476 79.1304 76.5001C79.1304 73.1056 77.4006 70.0928 74.7283 68.2054Z" fill="white" transform="matrix(1, 0, 0, 1, 0, 0)"/>
  <path d="M61.5189 73.6519C61.1018 74.5202 60.8696 75.4845 60.8696 76.5C60.8696 78.2497 61.559 79.8473 62.6952 81.0636C64.3069 80.7211 66.1781 80.525 68.1739 80.525C70.1698 80.525 72.041 80.7211 73.6526 81.0636C74.7888 79.8473 75.4783 78.2497 75.4783 76.5C75.4783 73.9576 74.0226 71.7363 71.8556 70.5393C70.2278 71.4707 68.1185 72.3122 65.7453 72.9129C64.2766 73.2846 62.8466 73.5288 61.5189 73.6519Z" fill="black" transform="matrix(1, 0, 0, 1, 0, 0)"/>
  <path d="M105.305 81.0635C103.693 80.721 101.822 80.525 99.8261 80.525C97.8302 80.525 95.959 80.721 94.3474 81.0635C93.2111 79.8472 92.5217 78.2497 92.5217 76.5C92.5217 74.0295 93.8961 71.8623 95.962 70.6434C97.5632 71.5333 99.6031 72.3346 101.888 72.9128C103.498 73.3206 105.063 73.5748 106.497 73.6843C106.904 74.5441 107.13 75.497 107.13 76.5C107.13 78.2497 106.441 79.8472 105.305 81.0635Z" fill="black" transform="matrix(1, 0, 0, 1, 0, 0)"/>
  <path d="M61.479 95.1872C61.479 96.331 60.998 97.428 60.1418 98.2368C59.2856 99.0456 58.1243 99.5 56.9134 99.5C55.7026 99.5 54.5413 99.0456 53.6851 98.2368C52.8289 97.428 52.3478 96.331 52.3478 95.1872C52.3478 92.8053 56.9134 88 56.9134 88C56.9134 88 61.479 92.8053 61.479 95.1872Z" fill="white" transform="matrix(1, 0, 0, 1, 0, 0)"/>
  <path d="M83.2859 94C92.6773 94 100.878 99.7929 101 99.8816L100.297 101C100.119 100.872 82.4271 88.3948 69.8613 100.935L69 99.9493C73.47 95.486 78.5305 94 83.2859 94Z" fill="black" transform="matrix(1, 0, 0, 1, 0, 0)"/>
</svg>