<?xml version="1.0" encoding="utf-8"?>
<svg viewBox="45.000003814697266 45.000003814697266 80 80" width="50" height="50" xmlns="http://www.w3.org/2000/svg">
  <path d="M125 85C125 107.091 107.091 125 85 125C62.9086 125 45 107.091 45 85C45 62.9086 62.9086 45 85 45C107.091 45 125 62.9086 125 85Z" fill="#FF67C2" transform="matrix(1, 0, 0, 1, 0, 0)"/>
  <path d="M80.1304 76.5C80.1304 82.2162 75.225 86.85 69.1739 86.85C63.1228 86.85 58.2174 82.2162 58.2174 76.5C58.2174 70.7839 63.1228 66.15 69.1739 66.15C75.225 66.15 80.1304 70.7839 80.1304 76.5Z" fill="white" transform="matrix(1, 0, 0, 1, 0, 0)"/>
  <path d="M76.4782 76.5C76.4782 80.3107 73.208 83.4 69.1739 83.4C65.1398 83.4 61.8695 80.3107 61.8695 76.5C61.8695 72.6892 65.1398 69.6 69.1739 69.6C73.208 69.6 76.4782 72.6892 76.4782 76.5Z" fill="black" transform="matrix(1, 0, 0, 1, 0, 0)"/>
  <path d="M111.783 76.5C111.783 82.2162 106.877 86.85 100.826 86.85C94.7749 86.85 89.8695 82.2162 89.8695 76.5C89.8695 70.7839 94.7749 66.15 100.826 66.15C106.877 66.15 111.783 70.7839 111.783 76.5Z" fill="white" transform="matrix(1, 0, 0, 1, 0, 0)"/>
  <path d="M108.13 76.5C108.13 80.3107 104.86 83.4 100.826 83.4C96.792 83.4 93.5217 80.3107 93.5217 76.5C93.5217 72.6892 96.792 69.6 100.826 69.6C104.86 69.6 108.13 72.6892 108.13 76.5Z" fill="black" transform="matrix(1, 0, 0, 1, 0, 0)"/>
  <path d="M84.974 112C78.3728 112 73 107.963 73 103C73 98.0372 78.3728 94 84.974 94C91.5753 94 96.9481 98.0372 96.9481 103.018C96.9481 107.998 91.5753 112 84.974 112Z" fill="black" transform="matrix(1, 0, 0, 1, 0, 0)"/>
  <path d="M76.0093 106.022C78.6472 103.998 85.2936 100.324 94.2198 105.58C92.7477 108.134 89.1574 109.941 84.974 109.941C81.0364 109.941 77.6243 108.34 76.0093 106.022Z" fill="black" transform="matrix(1, 0, 0, 1, 0, 0)"/>
  <path d="M84.9741 96.0555C81.3726 96.0555 78.2106 97.396 76.4614 99.3993H93.4868C91.7375 97.396 88.5756 96.0555 84.9741 96.0555Z" fill="white" transform="matrix(1, 0, 0, 1, 0, 0)"/>
</svg>